<svg id="Layer_1" data-name="Layer 1" xmlns="http://www.w3.org/2000/svg" viewBox="0 0 1483.2 1483.2"><defs><style>.cls-1{fill:#bd504c;}.cls-2{fill:#fff;}.cls-3{fill:#262630;}</style></defs><title>GERMANY</title><circle class="cls-1" cx="741.64" cy="741.64" r="741.64"/><polygon class="cls-2" points="996.09 487.76 996.09 124.61 878.57 124.61 878.57 605.28 1359.25 605.28 1359.25 487.76 996.09 487.76"/><polygon class="cls-3" points="1040.89 442.96 1040.89 124.61 996.09 124.61 996.09 487.76 1359.25 487.76 1359.25 442.96 1040.89 442.96"/><polygon class="cls-2" points="490.01 487.76 490.01 124.61 607.52 124.61 607.52 605.28 126.85 605.28 126.85 487.76 490.01 487.76"/><polygon class="cls-3" points="445.2 442.96 445.2 124.61 490.01 124.61 490.01 487.76 126.85 487.76 126.85 442.96 445.2 442.96"/><polygon class="cls-2" points="490.01 993.85 490.01 1357.01 607.52 1357.01 607.52 876.33 126.85 876.33 126.85 993.85 490.01 993.85"/><polygon class="cls-3" points="445.2 1038.65 445.2 1357.01 490.01 1357.01 490.01 993.85 126.85 993.85 126.85 1038.65 445.2 1038.65"/><polygon class="cls-3" points="878.57 605.28 878.57 124.61 607.52 124.61 607.52 605.28 126.85 605.28 126.85 876.33 607.52 876.33 607.52 1357.01 878.57 1357.01 878.57 876.33 1359.25 876.33 1359.25 605.28 878.57 605.28"/><polygon class="cls-2" points="996.09 993.85 996.09 1357.01 878.57 1357.01 878.57 876.33 1359.25 876.33 1359.25 993.85 996.09 993.85"/><polygon class="cls-3" points="1040.89 1038.65 1040.89 1357.01 996.09 1357.01 996.09 993.85 1359.25 993.85 1359.25 1038.65 1040.89 1038.65"/></svg>