<svg id="Layer_1" data-name="Layer 1" xmlns="http://www.w3.org/2000/svg" viewBox="0 0 1483.2 1483.2"><defs><style>.cls-1{fill:#fff;}.cls-2{fill:#bd504c;}</style></defs><title>JAPAN</title><circle class="cls-1" cx="741.64" cy="741.64" r="741.64"/><path class="cls-2" d="M2944,2695.07l264,26.78a737.82,737.82,0,0,0,29-136.92l-294.35,40.75a289.41,289.41,0,0,0-22.82-79.57l315.95-142.05a736.12,736.12,0,0,0-39.27-160.52l-312.53,243.15a292.88,292.88,0,0,0-59.58-57.45l269.69-374.06a745.82,745.82,0,0,0-135.61-138.85l-194.78,479.26a289.56,289.56,0,0,0-80.35-19.92L2742,1798.15a739.46,739.46,0,0,0-213.6-39.77l85.64,618.56a289.23,289.23,0,0,0-79.57,22.83l-271.2-603.22a739.37,739.37,0,0,0-203,105.92l414.78,533.14a293.21,293.21,0,0,0-57.45,59.59l-544.08-392.29a737.54,737.54,0,0,0-90.81,208.63L2384,2555.9a289.77,289.77,0,0,0-19.93,80.34l-601.53-61a737,737,0,0,0,51.85,206.67l550.95-76.28a289.58,289.58,0,0,0,22.83,79.57l-447.32,201.12a745.87,745.87,0,0,0,140.3,125.05L2424,2844.62a293.41,293.41,0,0,0,59.58,57.45l-217.28,301.37A737.71,737.71,0,0,0,2421.84,3237l122.45-301.31a289.92,289.92,0,0,0,80.35,19.93L2596.3,3235a737.94,737.94,0,0,0,132.46-29.69L2694,2954.37a289.68,289.68,0,0,0,79.57-22.83l95.2,211.74a743.17,743.17,0,0,0,102-70.46L2833,2895.69a293.41,293.41,0,0,0,57.45-59.58l184.11,132.75a743,743,0,0,0,71-103.45l-221.45-90A289.58,289.58,0,0,0,2944,2695.07Z" transform="translate(-1758.71 -1757.86)"/></svg>