<svg id="Layer_1" data-name="Layer 1" xmlns="http://www.w3.org/2000/svg" viewBox="0 0 1483.2 1483.2"><defs><style>.cls-1{fill:#262630;}.cls-2{fill:#bd504c;}.cls-3{fill:#e0cd75;}</style></defs><title>USSR</title><circle class="cls-1" cx="741.64" cy="741.64" r="741.64"/><polygon class="cls-2" points="741.64 96.51 886.74 543.07 1356.28 543.07 976.41 819.06 1121.51 1265.62 741.64 989.63 361.77 1265.62 506.87 819.06 127 543.07 596.54 543.07 741.64 96.51"/><path class="cls-2" d="M2500.56,2894.14a392.82,392.82,0,1,1,153.4-31A391.73,391.73,0,0,1,2500.56,2894.14Z" transform="translate(-1758.92 -1758.43)"/><path class="cls-3" d="M2500.56,2122c208.8,0,378.08,169.27,378.08,378.08s-169.28,378.08-378.08,378.08-378.08-169.28-378.08-378.08S2291.75,2122,2500.56,2122m0-32a408.91,408.91,0,1,0,159.63,32.24A407.58,407.58,0,0,0,2500.56,2090Z" transform="translate(-1758.92 -1758.43)"/><g id="HAMMER"><polygon class="cls-3" points="831.93 620.39 693.66 620.39 750.8 684.11 470.66 935.31 515.2 984.98 795.33 733.78 839.02 782.5 915.67 713.78 831.93 620.39"/></g><path class="cls-3" d="M2653.05,2328.56c-278-221.91-547,128.64-354.12,347.27,133.44,151.28,320.34,91,360.4,35l58.84,62.4,46.83-52.87-90.41-77.68c-51.24,43.41-216.87,67.39-296.84-62.83C2248.67,2369.68,2509.12,2232.6,2653.05,2328.56Z" transform="translate(-1758.92 -1758.43)"/></svg>